<svg xmlns="http://www.w3.org/2000/svg" viewBox="0 0 786 200"><path fill="#213e66" d="M293.9 76.7h-2.1c-1.9 0-3.1-1.2-3.3-3.3l-5.6-48.2-20.2 49.2c-.9 1.9-1.6 2.6-3.1 2.6h-.5c-1.4 0-2.1-.9-3.1-2.6l-20.2-48.7-5.6 47.8c0 2.1-1.2 3.3-3.3 3.3h-2.4c-1.9 0-3.1-1.2-2.8-3.3l8.5-65c0-1.4.9-2.1 2.1-2.1h.5c1.2 0 1.9.7 2.6 2.1l23.8 55.1 23.5-55.1c.7-1.4 1.6-2.1 2.6-2.1h.5c1.2 0 1.9.7 2.4 2.1l8.2 65c.2 2.1-.7 3.3-2.6 3.3h.2ZM307.1 49.8c0-15.8 12-28 28.5-28s28.5 12.2 28.5 28-12.2 28-28.5 28-28.5-12.2-28.5-28Zm48.5 0c0-11.8-8.2-20.5-20-20.5s-20 8.7-20 20.5 8.2 20.5 20 20.5 20-8.7 20-20.5ZM427.6 3v70.4c0 1.9-1.2 3.1-2.8 3.1h-2.4c-1.9 0-2.8-1.2-2.8-3.1v-4c-4.7 4.9-11.3 8.5-19.3 8.5-16 0-27.1-12.5-27.1-28s11.1-28 27.1-28 14.6 3.1 19.3 7.8v-26c0-1.6.9-2.6 2.8-3.1l2.4-.5c2.4-.7 3.5.7 3.5 2.8h-.7ZM420 49.8c0-13.7-8.9-20.5-19.3-20.5s-19.3 9.4-19.3 20.5 7.5 20.5 19.3 20.5S420 63.5 420 49.8ZM469.9 70.6c4.7 0 10.8-1.2 16.5-6.1 1.9-1.6 3.3-1.4 4.7 0l1.2.9c1.6 1.6.9 3.3 0 4.2-6.4 6.1-15.5 8.2-21.9 8.2-14.6 0-28.5-10.1-28.5-28s11.5-28.2 27.1-28.2 14.1 2.6 18.6 7.3c5.2 5.2 8 12.2 8 19.8s-1.4 3.5-3.5 3.5h-41.4c.9 11.8 9.9 18.4 19.8 18.4h-.5Zm-19.5-25.5h36.2c-.7-4.5-2.4-8.2-4.9-10.8-3.1-3.5-7.5-5.2-13.2-5.2-9.6 0-16.9 6.1-18.1 16ZM555.1 44v29.4c0 1.9-.9 3.1-2.8 3.1h-2.6c-1.9 0-2.8-1.2-2.8-3.1V44.7c0-9.4-5.9-15.5-14.8-15.5s-15.8 6.1-15.8 15.5v28.7c0 1.9-.9 3.1-2.8 3.1h-2.6c-1.9 0-2.8-1.2-2.8-3.1V25.6c0-1.9 1.2-3.1 2.8-3.1h2.1c1.9 0 2.8 1.2 2.8 3.1v4.5c3.8-5.2 9.9-8.2 17.9-8.2 13.4 0 21.9 9.2 21.9 22.4l-.5-.2ZM614.2 43.7v29.9c0 2.1-.9 3.1-2.8 3.1h-2.1c-1.9 0-2.8-1.2-2.8-3.1v-4c-4.5 5.2-11.3 8.5-18.4 8.5-12.5 0-20.7-7.1-20.7-17.4s9.2-17.9 22.8-17.9 11.8 1.6 16.2 3.8v-4.2c0-7.8-5.9-12.9-14.6-12.9s-10.8 1.6-16.2 5.6c-1.6 1.2-3.1.7-4-.7l-.7-.9c-1.4-1.9-.7-3.8.9-4.7 7.5-5.2 13.7-6.6 20.5-6.6 14.1 0 22.4 7.8 22.4 21.9l-.5-.2Zm-8 13.4v-3.5c-3.5-1.6-9.4-4.2-16-4.2s-14.6 4.5-14.6 11.1S581 70.6 589 70.6s17.2-5.2 17.2-13.4ZM100.9 146.6l-9.9-9.9c-4.2-4.2-7.1-3.3-10.8-.9-3.5 2.1-6.8 2.4-10.1-.9l-3.5-3.5c-3.5-3.5-3.3-6.6-.9-10.1 2.4-3.8 3.3-6.8-.9-10.8l-9.9-9.9c-11.5-11.5-17.2-25.2-4.2-38.1l8.9-8.9c3.5-3.5 7.1-3.5 10.6 0l3.1 3.1c3.5 3.5 3.5 7.1 0 10.6l-2.8 2.8c-3.3 3.3-3.3 7.1 0 10.4L82 92c9.4 9.4 8.2 17.2 2.6 25.2 8-5.6 16.7-5.6 22.8.5l13.9 13.9c3.3 3.3 7.1 3.3 10.4 0l2.8-2.8c3.5-3.5 7.1-3.5 10.6 0l3.1 3.1c3.5 3.5 3.5 7.1 0 10.6l-8.9 8.9c-12.9 12.9-26.6 7.3-38.1-4.2v-.2ZM184.7 105.2c-3.5 3.5-7.1 3.5-10.6 0l-3.1-3.1c-3.5-3.5-3.5-7.1 0-10.6l2.6-2.6c3.5-3.5 3.5-7.1 0-10.6l-13.9-13.9c-6.1-6.1-6.4-14.8-.2-22.8-8 5.6-15.8 6.6-25.2-2.6l-11.5-11.5c-3.3-3.3-7.1-3.3-10.6 0l-2.6 2.6c-3.5 3.5-7.1 3.5-10.6 0L95.9 27c-3.5-3.5-3.5-7.1 0-10.6l8.9-8.9c12.9-12.9 26.6-7.3 38.1 4.2l9.9 9.9c4.2 4.2 7.1 3.3 10.8.9 3.5-2.1 6.8-2.4 10.1.9l3.5 3.5c3.5 3.5 3.3 6.6.9 10.1-2.4 3.8-3.3 6.8.9 10.8l9.9 9.9c11.5 11.5 17.2 25.2 4.2 38.1l-8.9 8.9.2.2ZM28.9 144c-15.5 0-28 12.5-28 28s12.5 28 28 28 28-12.5 28-28-12.5-28-28-28Zm7 43.8c-4.9 0-8.7-4-8.7-8.7s4-8.7 8.7-8.7 8.7 4 8.7 8.7-4 8.7-8.7 8.7Z"/><path fill="#0095b7" d="M222.1 152.9v-57c0-3.5 1.9-5.4 5.4-5.4h40c3.5 0 5.4 1.9 5.4 5.4v6.1c0 3.5-1.9 5.4-5.4 5.4h-24.7v10.8h16.9c3.5 0 5.4 1.9 5.4 5.4v4.9c0 3.5-1.9 5.4-5.4 5.4h-16.9V153c0 3.5-1.9 5.4-5.4 5.4h-10.1c-3.5 0-5.4-1.9-5.4-5.4l.2-.2ZM280.5 126.3V95.9c0-3.5 1.9-5.4 5.4-5.4H296c3.5 0 5.4 1.9 5.4 5.4v31.8c0 8 4.9 13.4 12.2 13.4s12.2-5.4 12.2-13.4V95.9c0-3.5 1.9-5.4 5.4-5.4h9.9c3.5 0 5.4 1.9 5.4 5.4v30.4c0 20-13.2 33.2-32.7 33.2s-32.9-13.2-32.9-33.2h-.5ZM358.1 152.9v-57c0-3.5 1.9-5.4 5.4-5.4h10.1c3.5 0 5.4 1.9 5.4 5.4v45.4h20.5c3.5 0 5.4 1.9 5.4 5.4v6.1c0 3.5-1.9 5.4-5.4 5.4h-35.8c-3.5 0-5.4-1.9-5.4-5.4h-.2ZM412 152.9v-57c0-3.5 1.9-5.4 5.4-5.4h10.1c3.5 0 5.4 1.9 5.4 5.4v45.4h20.5c3.5 0 5.4 1.9 5.4 5.4v6.1c0 3.5-1.9 5.4-5.4 5.4h-35.8c-3.5 0-5.4-1.9-5.4-5.4h-.2ZM464.1 150.1c-2.6-2.4-3.3-4.9-.9-7.5l4.5-5.4c2.4-2.6 4.7-3.1 7.5-.9 4 3.1 10.6 5.9 15.8 5.9s8-1.6 8-4c0-3.5-4.5-3.8-11.1-5.6-10.6-2.8-22.8-8.7-22.8-22.1s11.1-20.9 27.3-20.9 17.7 3.1 23.3 7.3c2.8 2.1 3.5 4.7 1.4 7.3l-4.2 5.2c-2.1 2.6-4.7 3.1-7.5.9-3.3-2.4-7.5-4.7-12.7-4.7s-6.4 1.4-6.4 3.8 4.7 4.9 9.2 6.1c11.5 3.3 24.9 7.3 24.9 22.6s-13.2 21.4-28.2 21.4-21.4-3.8-27.8-9.2h-.2ZM543.4 152.9v-45.4h-15.3c-3.5 0-5.4-1.9-5.4-5.4V96c0-3.5 1.9-5.4 5.4-5.4h51.3c3.5 0 5.4 1.9 5.4 5.4v6.1c0 3.5-1.9 5.4-5.4 5.4h-15.3v45.4c0 3.5-1.9 5.4-5.4 5.4h-10.1c-3.5 0-5.4-1.9-5.4-5.4h.2ZM645.7 158.1h-13.2c-3.5 0-4.2-1.9-5.4-5.4l-1.9-4.7h-24l-1.9 4.7c-1.4 3.5-1.9 5.4-5.6 5.4h-12.2c-3.5 0-5.4-1.9-3.8-5.4L605.2 95c1.6-3.5 4.2-5.4 7.8-5.4h1.2c3.5 0 6.1 1.9 7.8 5.4l27.5 57.7c1.6 3.3-.2 5.4-3.8 5.4Zm-25.4-23.5-6.6-17.4-7.1 17.4h13.7ZM650.9 124.5c0-20 16.2-35.1 37.7-35.1s18.8 3.5 25.2 9.6c2.6 2.4 2.6 5.4 0 7.5l-6.1 5.4c-2.6 2.1-4.7 2.1-7.5 0-3.3-2.4-7.3-3.8-11.5-3.8-9.2 0-16.2 6.8-16.2 16.2s7.1 16.2 16.2 16.2 8.5-1.4 11.5-3.8c2.6-2.1 4.9-2.1 7.5 0l6.1 5.4c2.6 2.1 2.6 5.2 0 7.5-6.4 6.1-15.3 9.6-25.7 9.6-20.9 0-37.4-15.1-37.4-35.1h.2ZM781.5 158.1h-13.4c-3.5 0-5.4-1.9-7.5-5.4l-12-20-4 4.5v15.3c0 3.5-1.9 5.4-5.4 5.4h-10.1c-3.5 0-5.4-1.9-5.4-5.4v-57c0-3.5 1.9-5.4 5.4-5.4h10.1c3.5 0 5.4 1.9 5.4 5.4v18.6l14.6-18.6c2.6-3.1 4.2-5.4 7.8-5.4h13.7c3.5 0 5.4 2.1 2.8 5.4l-20 24.7 20.7 32.2c2.1 3.5.7 5.4-2.8 5.4l.2.2ZM92 79c0-4.7 3.8-8.5 8.5-8.5s8.5 3.8 8.5 8.5-3.8 8.5-8.5 8.5S92 83.7 92 79Zm21.6 0c0-4.7 3.8-8.5 8.5-8.5s8.5 3.8 8.5 8.5-3.8 8.5-8.5 8.5-8.5-3.8-8.5-8.5Zm21.4 0c0-4.7 3.8-8.5 8.5-8.5s8.5 3.8 8.5 8.5-3.8 8.5-8.5 8.5-8.5-3.8-8.5-8.5Z"/></svg>
