<svg xmlns="http://www.w3.org/2000/svg" shape-rendering="crispEdges" viewBox="-4 -4 41 41"><path fill-rule="evenodd" d="M9 0h1v2h1V1h2v1h-1v2h-1V3h-1v1H8V3h1V2H8V1h1zm7 0h1v1h-1zm3 0h2v2h1V1h1v2h-3V1h-1zm4 0h1v1h-1zm-8 1h1v1h1v1h-1v1h-1v1h-3V4h1V3h1V2h1zm2 0h2v1h-2zm7 1h1v2h-1v1h-1V3h1zm-7 1h1v1h-1zm2 0h1v2h-1zm-9 1h1v3h-1zm6 0h1v4h-3V6h1v1h1V6h-1V5h1zM8 5h1v2H8zm12 0h1v2h-1zm2 0h1v2h1v1h2v1h1V8h1v2h2v1h-2v1h-1v-2h-1v2h-1v1h-1v-1h-1v1h1v1h-3v1h2v2h1v1h-6v-1h4v-1h-2v-2h-3v1h-3v1h-1v1h-1v-2h1v-1h-1v-1h2v1h2v-1h-1v-1h3v1h2v-1h1v1h1v-1h-1v-1h3v-1h-1V9h-1V8h-1V7h1zm2 0h1v2h-1zM12 6h1v2h1v2h3v1h-2v1h-1v-1h-2v2h-1v-1h-1v1H9v-1H8v-1h1v-1H8v1H6v-1h1V9H6V8h5v1h-1v2h1v-1h2V9h-1zm6 0h1v1h1v1h-2zM0 8h5v1H4v1h1v1h1v1h2v2h1v1H6v-1h1v-1H6v1H5v-2H2v-1H1v2H0zm1 1h1v1H1zm16-1h1v2h-1zm3 0h1v1h1v1h-1v1h-1v-1h-1V9h1zm9 0h1v1h-1zm2 0h1v1h1v1h-1v1h-1v-1h-1V9h1zM5 9h1v1H5zm13 1h1v1h-1zm1 1h1v1h-1zm11 0h1v1h-1zm-2 1h2v1h-2zM2 13h2v1h1v2H3v1H2v-1H1v-1h2v-1H2zm8 0h1v2h-1zm15 0h3v2h-1v-1h-2zm6 0h2v1h-1v1h-1zM0 14h1v1H0zm9 1h1v1H9zm9 0h1v1h-1zm12 0h1v1h-1zM0 16h1v1H0zm6 0h1v1H6zm2 0h1v1H8zm6 0h4v1h-1v2h-2v-1h1v-1h-2zm14 0h1v1h-1zm3 0h1v1h1v1h-1v1h-1zm-6 1h2v1h-2zm4 0h1v2h-2v1h-1v-2h2zM0 18h1v1H0zm4 0h1v1H4zm2 0h2v1H6zm4 0h3v1h-1v2h-1v1h-1v1h1v1H9v-3H8v-1h1v-1h1zm14 0h1v1h1v1h-1v1h-1v1h-1v-2h1zM1 19h1v1H1zm13 0h1v1h-1zm6 0h3v1h-3zm10 0h1v1h-1zM2 20h5v1H6v1h2v1H4v-1H2zm13 0h1v1h-1zm2 0h3v1h1v1h2v3h-1v-1h-1v-1h-1v-1h-3v2h-1v-1h-2v1h-1v1h-1v-2h1v-1h-1v-1h3v1h1v-1h1zm11 0h1v1h-1zm3 0h1v1h1v1h-1v1h-1zM0 21h1v4H0zm26 0h1v2h1v1h1v1h1v1h2v1h-1v1h-2v2h-2v-1h-1v1h-3v-1h1v-1h-1v1h-1v-1h-1v-1h2v-2h1v-1h2v-1h-2v-1h2zm-1 4h3v3h-3zm4-4h1v2h1v1h-2zm-10 2h1v1h-1zM2 24h3v1H2zm4 0h2v1H6zm8 0h1v1h-1zm3 0h1v1h-1zm3 0h1v1h1v1h-1v1h-1v-1h-1v-1h1zm12 0h1v2h-1zM8 25h3v1h2v1h-1v2h-1v3h-1v-1H9v1h1v1H8v-5h1v2h1v-2H9v-1H8zm7 1h2v1h-2zm11 0h1v1h-1zm-12 1h1v1h-1zm4 0h2v1h-2zm14 0h1v3h-2v2h-1v1h-8v-1h3v-1h1v1h1v-1h1v1h1v-2h1v-1h1v-1h1zm-15 1h1v1h-1zm3 0h1v2h2v1h-1v1h-1v-1h-1v-1h-1v1h-1v-2h2zm-8 1h3v1h1v1h1v1h-2v-1h-1v1h-1v1h-1v-2h1v-1h-1zm4 0h1v1h-1zm10 1h1v1h-1zm-12 2h1v1h-1zm3 0h1v1h-1zm14 0h1v1h-1z"/><path fill-rule="evenodd" d="M0 0h7v7H0V0zm1 1h5v5H1V1zm1 1h3v3H2V2zm24-2h7v7h-7V0zm1 1h5v5h-5V1zm1 1h3v3h-3V2zM0 26h7v7H0v-7zm1 1h5v5H1v-5zm1 1h3v3H2v-3z"/></svg>