<svg xmlns="http://www.w3.org/2000/svg" viewBox="0 0 521 756"><path d="M251.2 145c-4.1 2.5-6.2 7.3-6.2 13.9 0 5.6-.8 6.6-4.3 5-1.9-.9-3.1-.7-5.6.6-5.9 3-5 6.3 2.4 9.5 5.8 2.5 7.4 4.9 8.4 12.1.5 3.5 1.4 8.2 2 10.4s1.1 10.3 1.1 17.9c0 8.1.5 15.3 1.2 17.2.9 2.5.9 4.2 0 7.1-1.6 5.2-14.9 27.8-16.4 27.8-.7 0-1.6-2-1.9-4.6-.7-4.7-2.2-8.4-4.4-10.5-4.1-4.2-12.9-5.6-20.7-3.2-3.2.9-4.1.9-5.4-.3-1.3-1.3-1.2-1.9.3-5 1.1-2.2 1.7-5.7 1.7-9.7 0-5.5-.3-6.6-2.3-8.1-2.3-1.8-2.3-1.9-1.9-19.7.4-20.1.9-21.7 8.7-30.6 5-5.6 5.5-9.4 1.4-10.4-1.4-.4-4-.1-5.7.5-6.4 2.6-6.3 2.7-7-3.5-.9-7.9-3.2-12.4-6.2-12.4-3.6 0-6.2 3.3-6.9 8.7-.3 2.6-2.2 11.5-4.2 19.8-3.5 14.7-3.5 15.4-4.1 41.5-.4 23.8-.3 26.9 1.2 29.9 2.1 4 2.2 5.1 1.1 26.2l-.8 16.6 3.4 3.9c5.8 6.5 6.6 8.4 7.2 17.4.4 6.3 1.5 10.9 4.1 17.7 4.3 11.1 5.6 18.6 5.6 32.1 0 8.5-.4 11-2.1 14.5-1.5 2.8-2.4 7.1-2.9 13.2-.5 6.9-1.5 10.9-4.3 17.5-4.8 11.5-7.3 20-8.6 29.5-2.9 19.5-4.5 27.5-7.1 34-1.5 3.8-3.1 8.6-3.5 10.5s-2.4 6.1-4.5 9.2c-3.6 5.7-4.3 7.6-9.5 26.8-5.5 20.1-12.5 40.7-15.4 45-1.6 2.5-5 7.1-7.5 10.3-5.6 7.1-6.2 12.2-2.1 16.2 4.7 4.8 18.2 2 24.6-5.1 4.9-5.7 5.4-6.7 6-14.4.4-6.6 1.3-9.2 5.6-18.1 7.4-15.2 7.9-16.3 12.4-28.9 5.2-14.3 6.9-20.5 6.9-24.8 0-2.2 1.3-5.2 4-9.2 2.2-3.2 4-6.1 4-6.4 0-.2 2-4.7 4.4-9.8s8.3-17.6 13-27.7c9.8-21.1 11-23.1 13.5-23.1 2.1 0 3.5 2.7 5 10.1.8 4 2.6 7.4 6.4 12.5s5.7 8.8 7 13.9c2.6 9.7 4.4 13.9 9.4 21.7 5.8 9 5.9 9.5 7.2 24 .7 7 1.8 15.8 2.6 19.5.7 3.7 2 10.3 2.9 14.6.9 4.2 2.7 12.1 4 17.5 1.6 6.6 2.4 12.5 2.4 18.5 0 8.6-.1 8.8-4.4 15.4-7 10.7-6 16.3 3.1 16.3 4.6 0 14.3-5 18.4-9.5 1.6-1.8 3.8-3.6 4.9-3.9 5.3-1.7 5.8-13.4 2.2-46.6-3.1-28.3-3.6-31.1-6.4-37.2-3.6-7.9-3.5-14.8.4-24.7 1.6-4.2 4.3-12.1 6-17.6 3.4-11.3 5.9-17.5 7.1-17.5 1.7 0 6.9 7.6 8.9 13.4 3.4 9.1 13.9 30.1 19.3 38.2 2.6 3.9 5.4 9 6.2 11.4.8 2.3 4.3 10.2 7.6 17.4 16.1 34.3 15.1 32.6 22.7 40.1 6.4 6.1 7.4 7.7 9.4 13.8 3.6 11.4 9.9 16.7 19.8 16.7 4.4 0 5.6-.5 8.1-2.9 1.6-1.6 2.9-3.8 2.9-4.9 0-2-13.3-19.3-18.9-24.6-3-2.9-3.1-3.2-2.5-9 .4-5 .2-6.8-1.5-10.1-1.2-2.1-2.1-4.7-2.1-5.6 0-2.5-4.5-13.9-9.1-23.2-6.2-12.3-12.4-21.4-15.8-23.2-1.7-.8-3.5-2.3-4-3.3-2.3-4.3-6.5-21.9-8.7-36.7l-2.4-16-7.9-16c-4.8-9.8-10.2-19.1-14-24-3.4-4.4-6-8.7-5.7-9.5 1.2-4.6 2.7-11.2 3.7-16.1 2.3-12.8 5.7-11.4 8.8 3.6 2.7 12.9 7.8 28.8 12.6 39.1 3.8 8.1 6.2 15.3 8 23.9 2.3 10.9 2.3 10.9 4.6 13.3 2.4 2.6 3.6 2.1 5.4-2.1l1.2-3 2.8 5c2.8 5.2 6.4 8.1 8.5 6.8 4.8-3 1.8-14.2-7.6-28.5-3.4-5.2-5.2-9.8-8.9-22.5-3.1-11-6.4-19.8-10.6-28.3l-6-12.2-.8-17.4c-1-19.4-2.1-23.2-7.6-26.6-2.5-1.6-5-2-11.3-2-7 0-8.3-.3-9.2-1.9-1.7-3.2-1.2-3.8 3.6-5.5 10.2-3.5 15.4-10.6 15.4-21.2 0-10.2-6-17.5-15.5-18.9-6.8-1.1-9.5.1-18.7 8-9 7.8-10.2 9.9-10 17.4.1 2.4 1.1 4.4 3.2 6.6 3.6 3.7 3.7 5.7.7 11-2.2 4-2.3 4-9.4 4.6-13.4 1-15.7 4.8-15.5 25.4.1 7.7.3 15.1.5 16.5.2 2.2-.2 2.5-3.5 2.8-4.8.4-5-.4-3.8-15.8.5-6.9 1-23.6 1-37.1 0-26 .7-31.5 6.9-54.4 1.1-3.9 2.3-9 2.6-11.3.6-3.8 1.2-4.6 4.1-5.8 4.8-2 5.7-5.1 5-15.8-.4-4.9-1.3-17.4-2.1-27.8-.8-11.7-1.8-19.5-2.6-20.4-.7-.8-1.6-3.4-2-5.7s-1.2-6-1.8-8.2c-.5-2.2-1.4-7.5-1.9-11.8-1.4-11.5-5.3-14.4-13-9.7m20.2 244.5c.9 6.5-1 40.9-2.4 43.4-.9 1.7-3.4-6.1-4.5-14.4-.8-5.6-5.7-25.4-7.4-29.8-.6-1.6-1.1-3.2-1.1-3.7 0-1.2 3.5-1.8 9.5-1.6l5 .1z"/></svg>
